<svg xmlns="http://www.w3.org/2000/svg" viewBox="0 0 95.331 73.353"><defs><style>.a,.d,.g{fill:#fff;}.a,.b,.c,.d{stroke:#27116c;}.a,.b,.i{stroke-width:2px;}.b,.c,.h,.i,.j,.l{fill:none;}.b,.c,.i{stroke-linecap:round;}.c,.d,.j{stroke-width:3px;}.e{fill:#70d5e0;}.f{fill:#f2705d;}.i{stroke:#fff;}.j{stroke:#ebeaf0;}.k,.m{stroke:none;}.m{fill:#27116c;}</style></defs><g transform="translate(-1086 -127)"><g transform="translate(909 8)"><g transform="translate(177 119)"><g class="a"><rect class="k" width="63.98" height="56" rx="9"/><rect class="l" x="1" y="1" width="61.98" height="54" rx="8"/></g><line class="b" x2="55" transform="translate(16.48 47.5)"/><line class="b" x2="9" transform="translate(55.48 55)"/><path class="b" d="M902.539,190.586a7.967,7.967,0,0,1-4.1,6.405,8.358,8.358,0,0,1-3.41,1" transform="translate(-886.52 -142.997)"/><path class="b" d="M902.539,190.586a7.967,7.967,0,0,1-4.1,6.405,8.358,8.358,0,0,1-3.41,1" transform="translate(-830.539 -142.997)"/><g transform="translate(22.491 19.5)"><line class="c" x1="0.009" y1="14" transform="translate(4 1)"/><line class="c" y1="3" x2="4" transform="translate(0 1)"/><g class="d" transform="translate(9.5)"><ellipse class="k" cx="5.5" cy="8.5" rx="5.5" ry="8.5"/><ellipse class="l" cx="5.5" cy="8.5" rx="4" ry="7"/></g></g></g><path class="e" d="M-.331,1.375s52.642.023,52.617.019a7.085,7.085,0,0,1-1.636,3.15,5.482,5.482,0,0,1-1.488,1.268A7.888,7.888,0,0,1,46.142,6.9L-3.172,6.856A7.652,7.652,0,0,0-.912,3.876,8.262,8.262,0,0,0-.331,1.375Z" transform="translate(195.601 166.105)"/><rect class="f" width="58.98" height="14" rx="7" transform="translate(180 121)"/><path class="g" d="M0,0H59.98V8H0Z" transform="translate(179 128)"/><g transform="translate(23.218 -22)"><path class="f" d="M8.985,0a9.66,9.66,0,0,1,8.748,6.05,12.09,12.09,0,0,1,.674,4.138c0,2.322-.34,3.886-2.735,6.632A9.363,9.363,0,0,1,12.8,18.973a7.338,7.338,0,0,1-3.5.936,9.633,9.633,0,0,1-5.954-2.188A10.113,10.113,0,0,1,0,10.188C0,5.225,3.849.018,8.985,0Z" transform="translate(231.928 189.169) rotate(21)"/><g class="h" transform="translate(224 191)"><path class="k" d="M11.317,0A11.127,11.127,0,0,1,22.635,10.927,11.127,11.127,0,0,1,11.317,21.854,11.127,11.127,0,0,1,0,10.927,11.127,11.127,0,0,1,11.317,0Z"/><path class="m" d="M 11.31731796264648 1.999994277954102 C 6.179727554321289 1.999994277954102 1.999998092651367 6.004664421081543 1.999998092651367 10.92706489562988 C 1.999998092651367 15.84946441650391 6.179727554321289 19.85412406921387 11.31731796264648 19.85412406921387 C 16.45490837097168 19.85412406921387 20.6346378326416 15.84946441650391 20.6346378326416 10.92706489562988 C 20.6346378326416 6.004664421081543 16.45490837097168 1.999994277954102 11.31731796264648 1.999994277954102 M 11.31731796264648 -5.7220458984375e-06 C 17.56769752502441 -5.7220458984375e-06 22.6346378326416 4.892215728759766 22.6346378326416 10.92706489562988 C 22.6346378326416 16.9619140625 17.56769752502441 21.85412406921387 11.31731796264648 21.85412406921387 C 5.066938400268555 21.85412406921387 -1.9073486328125e-06 16.9619140625 -1.9073486328125e-06 10.92706489562988 C -1.9073486328125e-06 4.892215728759766 5.066938400268555 -5.7220458984375e-06 11.31731796264648 -5.7220458984375e-06 Z"/></g><g transform="translate(231.919 198.221)"><path class="i" d="M.469.778,4,4.563" transform="translate(0 2.716)"/><line class="i" x1="3.903" y2="7" transform="translate(4.461 0.279)"/></g></g></g><g class="j" transform="translate(1093 139)"><rect class="k" width="50" height="32" rx="4"/><rect class="l" x="1.5" y="1.5" width="47" height="29" rx="2.5"/></g></g></svg>