<svg xmlns="http://www.w3.org/2000/svg" viewBox="0 0 49 62.611"><defs><style>.a,.b{fill:#fff;}.b,.d,.e{stroke:#27116c;}.b,.e{stroke-width:2px;}.c{fill:#f2705d;}.d,.h{fill:#27116c;}.e,.i{fill:none;}.e{stroke-linecap:round;}.f{fill:#70d5e0;}.g,.h{stroke:none;}</style></defs><g transform="translate(-188 -350)"><g class="a" transform="translate(207.086 392.537)"><path class="g" d="M 4.910151481628418 12.07381820678711 C 3.740908622741699 12.07381820678711 1.663042902946472 11.55630874633789 0.9172892570495605 11.2139835357666 C 0.9059299826622009 10.51168632507324 0.9160022139549255 9.065287590026855 0.9237715601921082 7.949248313903809 C 0.9290115833282471 7.197028160095215 0.9339615702629089 6.486518383026123 0.9339615702629089 5.956708431243896 C 0.9339615702629089 5.729228496551514 0.9326315522193909 5.504498481750488 0.9313116073608398 5.283008098602295 C 0.9219115972518921 3.701338291168213 0.9137915968894958 2.335368394851685 1.4020916223526 1.47890830039978 C 1.708141565322876 0.9420983195304871 2.406151533126831 0.2263283282518387 4.923421382904053 0.2081183195114136 C 4.954581737518311 0.2078983187675476 4.985011577606201 0.2077883183956146 5.015751361846924 0.2077883183956146 C 6.549881458282471 0.2077883183956146 7.566721439361572 0.4804783165454865 8.124391555786133 1.041458368301392 C 8.921401977539062 1.843188285827637 8.911972045898438 3.437638282775879 8.90105152130127 5.283858299255371 C 8.899741172790527 5.505328178405762 8.898421287536621 5.729798316955566 8.898421287536621 5.956708431243896 C 8.898421287536621 6.209738254547119 8.901861190795898 6.48123836517334 8.905501365661621 6.768678188323975 C 8.921451568603516 8.026328086853027 8.948122024536133 10.13125801086426 8.544421195983887 10.78524875640869 C 7.845951557159424 11.92088794708252 6.315371513366699 12.07381820678711 4.910151481628418 12.07381820678711 Z"/><path class="h" d="M 4.910151481628418 11.07381820678711 C 6.496363639831543 11.07381820678711 7.327642440795898 10.83544635772705 7.684245586395264 10.27476024627686 C 7.70559549331665 10.22574615478516 7.823539733886719 9.920023918151855 7.879671573638916 9.03842830657959 C 7.92514181137085 8.324368476867676 7.914751529693604 7.504608154296875 7.905581474304199 6.78134822845459 C 7.901901721954346 6.490658283233643 7.898421764373779 6.216078281402588 7.898421764373779 5.956708431243896 C 7.898421764373779 5.727798461914062 7.899751663208008 5.501368522644043 7.901071548461914 5.277948379516602 C 7.90986156463623 3.790898323059082 7.918961524963379 2.253218412399292 7.415191650390625 1.746468305587769 C 7.069871425628662 1.39909827709198 6.217731475830078 1.207788348197937 5.015751361846924 1.207788348197937 C 4.987371444702148 1.207788348197937 4.959251403808594 1.20788836479187 4.930651664733887 1.208098292350769 C 3.771921634674072 1.21647834777832 3.138971567153931 1.387248277664185 2.812031507492065 1.529028296470642 C 2.476481676101685 1.674538373947144 2.353611469268799 1.828978300094604 2.270821571350098 1.974198341369629 C 1.915371537208557 2.597638368606567 1.923101544380188 3.899148225784302 1.931301593780518 5.277068138122559 C 1.932621598243713 5.500508308410645 1.933961629867554 5.727228164672852 1.933961629867554 5.956708431243896 C 1.933961629867554 6.489998340606689 1.929001569747925 7.202198505401611 1.923751592636108 7.956208229064941 C 1.9183269739151 8.73529052734375 1.91120445728302 9.758033752441406 1.912258505821228 10.51402854919434 C 2.766598463058472 10.77918720245361 4.140065670013428 11.07381820678711 4.910151481628418 11.07381820678711 M 4.910151481628418 13.07381820678711 C 3.38025164604187 13.07381820678711 -0.01693842187523842 12.227707862854 -0.06603842228651047 11.67106819152832 C -0.1151484251022339 11.11442852020264 -0.06603842228651047 7.61154842376709 -0.06603842228651047 5.956708431243896 C -0.06603842228651047 2.229578256607056 -0.427888423204422 -0.7532016634941101 4.916191577911377 -0.7918516993522644 C 4.949787616729736 -0.7920946478843689 4.982606887817383 -0.7922137975692749 5.015753746032715 -0.7922137975692749 C 10.2551851272583 -0.7922137975692749 9.898421287536621 2.25300931930542 9.898421287536621 5.956708431243896 C 9.898421287536621 7.600388526916504 10.04998111724854 10.25004863739014 9.395351409912109 11.31052875518799 C 8.415061950683594 12.90437793731689 6.448291778564453 13.07381820678711 4.910151481628418 13.07381820678711 Z"/></g><g class="b" transform="translate(188 365)"><circle class="g" cx="4.5" cy="4.5" r="4.5"/><circle class="i" cx="4.5" cy="4.5" r="3.5"/></g><g class="b" transform="translate(228 365)"><circle class="g" cx="4.5" cy="4.5" r="4.5"/><circle class="i" cx="4.5" cy="4.5" r="3.5"/></g><g class="a" transform="translate(192.483 356.176)"><path class="g" d="M 19.76080513000488 38.93075942993164 C 17.22785377502441 38.93075942993164 14.77118492126465 38.43344116210938 12.45902442932129 37.45259857177734 C 10.22504425048828 36.50492858886719 8.218464851379395 35.14801025390625 6.495034694671631 33.41950988769531 C 4.771394729614258 31.69081115722656 3.418224573135376 29.6779899597168 2.473124504089355 27.43694114685059 C 1.494774460792542 25.1170711517334 0.9987044930458069 22.65213966369629 0.9987044930458069 20.11063957214355 C 0.9987044930458069 18.56015014648438 0.9791045188903809 16.47612953186035 0.9583545327186584 14.26975059509277 C 0.9196470379829407 10.15536785125732 0.872002899646759 5.090303421020508 0.9725825190544128 3.658490657806396 C 1.173463940620422 3.51952052116394 1.76668119430542 3.188446283340454 3.338444471359253 2.719290494918823 C 4.715854644775391 2.308140277862549 6.520224571228027 1.886710405349731 8.556474685668945 1.5005704164505 C 12.69667434692383 0.7154603600502014 17.08523368835449 0.2081503719091415 19.73685455322266 0.2081503719091415 C 22.46312522888184 0.2081503719091415 26.00766372680664 0.3002403676509857 29.24538421630859 1.018380403518677 C 32.69669342041016 1.78389036655426 35.1541748046875 3.094730377197266 36.75824356079102 5.025800228118896 C 38.72814559936523 7.388650417327881 38.62566375732422 13.375 38.55084609985352 17.74604034423828 C 38.53648376464844 18.58506011962891 38.52291488647461 19.37755012512207 38.52291488647461 20.11063957214355 C 38.52291488647461 22.65213966369629 38.0268440246582 25.1170711517334 37.04849624633789 27.43694114685059 C 36.10338592529297 29.6779899597168 34.75022506713867 31.69081115722656 33.02658462524414 33.41950988769531 C 31.30314445495605 35.14801025390625 29.29656410217285 36.50492858886719 27.06258392333984 37.45259857177734 C 24.75042533874512 38.43344116210938 22.29375457763672 38.93075942993164 19.76080513000488 38.93075942993164 Z"/><path class="h" d="M 19.73685455322266 1.208141326904297 C 17.2471752166748 1.208141326904297 13.0816535949707 1.680519104003906 9.124673843383789 2.411571502685547 C 4.917591094970703 3.188838958740234 2.792186737060547 3.892978668212891 1.943572998046875 4.269660949707031 C 1.882038116455078 6.151744842529297 1.925369262695312 10.75893402099609 1.958305358886719 14.26033973693848 C 1.979084014892578 16.46914100646973 1.998703002929688 18.55544090270996 1.998703002929688 20.11063957214355 C 1.998703002929688 24.87166976928711 3.847023010253906 29.34743118286133 7.203174591064453 32.71343994140625 C 10.55776405334473 36.0778694152832 15.01748466491699 37.93075180053711 19.76080513000488 37.93075180053711 C 24.50412368774414 37.93075180053711 28.9638557434082 36.0778694152832 32.31844329833984 32.71343994140625 C 35.67459487915039 29.34743118286133 37.52291488647461 24.87166976928711 37.52291488647461 20.11063957214355 C 37.52291488647461 19.36899948120117 37.53655624389648 18.57234954833984 37.55099487304688 17.72892951965332 C 37.59048461914062 15.42197036743164 37.63524627685547 12.80719947814941 37.40663528442383 10.49819946289062 C 37.11571502685547 7.559780120849609 36.47639465332031 6.249382019042969 35.98900604248047 5.664760589599609 C 34.53205490112305 3.910800933837891 32.25536346435547 2.710300445556641 29.02884483337402 1.994640350341797 C 25.88592529296875 1.297538757324219 22.4121036529541 1.208141326904297 19.73685455322266 1.208141326904297 M 19.73685455322266 -0.7918586730957031 C 25.83790588378906 -0.7918586730957031 33.63911437988281 -0.2942008972167969 37.5274658203125 4.386821746826172 C 40.12408447265625 7.50139045715332 39.52291488647461 15.28326988220215 39.52291488647461 20.11063957214355 C 39.52291488647461 31.05699157714844 30.67511367797852 39.93075180053711 19.76080513000488 39.93075180053711 C 8.846494674682617 39.93075180053711 -0.0012969970703125 31.05699157714844 -0.0012969970703125 20.11063957214355 C -0.0012969970703125 15.25049018859863 -0.196075439453125 4.9627685546875 -0.0012969970703125 3.32794189453125 C 0.1934852600097656 1.693111419677734 13.6684741973877 -0.7918586730957031 19.73685455322266 -0.7918586730957031 Z"/></g><g class="a" transform="translate(193.483 399.537)"><path class="g" d="M 19.73685455322266 12.07382392883301 C 17.03693389892578 12.07382392883301 12.58544445037842 11.89859390258789 8.396154403686523 11.62739372253418 C 4.000061988830566 11.34281253814697 1.796276450157166 11.08022689819336 0.9193648099899292 10.92408657073975 C 0.8967152833938599 10.18896389007568 0.9337059259414673 8.849684715270996 0.9580144882202148 7.969893455505371 C 0.9789345264434814 7.212373733520508 0.9987044930458069 6.496853351593018 0.9987044930458069 5.956713676452637 C 0.9987044930458069 5.54836368560791 1.20363450050354 4.896143436431885 2.17989444732666 4.107933521270752 C 3.071184635162354 3.388323545455933 4.430214405059814 2.704743623733521 6.110054492950439 2.131093502044678 C 9.741294860839844 0.8910635709762573 14.58922481536865 0.2081435769796371 19.76080513000488 0.2081435769796371 C 24.9323844909668 0.2081435769796371 29.78031539916992 0.8910635709762573 33.41155624389648 2.131093502044678 C 35.09140396118164 2.704743623733521 36.45043563842773 3.388323545455933 37.34172439575195 4.107933521270752 C 37.88057327270508 4.542983531951904 38.52291488647461 5.216883659362793 38.52291488647461 5.956713676452637 C 38.52291488647461 6.228533744812012 38.53702545166016 6.509143352508545 38.55195617675781 6.806223392486572 C 38.64409637451172 8.638763427734375 38.59566497802734 9.794083595275879 37.14937591552734 10.38476371765137 C 33.49695587158203 11.88189315795898 25.92531394958496 12.07382392883301 19.73685455322266 12.07382392883301 Z"/><path class="h" d="M 19.73685455322266 11.07382392883301 C 23.65534400939941 11.07382392883301 32.83172607421875 11.07382392883301 36.77128601074219 9.459003448486328 C 37.47510528564453 9.171553611755371 37.65169525146484 8.815223693847656 37.55322265625 6.856433391571045 C 37.53832626342773 6.560093402862549 37.52291488647461 6.253653526306152 37.52291488647461 5.956713676452637 C 37.52291488647461 5.60261344909668 36.70822525024414 4.313573360443115 33.08839416503906 3.077443599700928 C 29.55847358703613 1.872003555297852 24.82531356811523 1.208143591880798 19.76080513000488 1.208143591880798 C 14.6962947845459 1.208143591880798 9.963134765625 1.872003555297852 6.433224678039551 3.077443599700928 C 2.813394546508789 4.313573360443115 1.998704552650452 5.60261344909668 1.998704552650452 5.956713676452637 C 1.998704552650452 6.510663509368896 1.97875452041626 7.232883453369141 1.957634568214417 7.997513771057129 C 1.941430568695068 8.584094047546387 1.919108748435974 9.392013549804688 1.913265466690063 10.06251811981201 C 3.077765941619873 10.21309280395508 5.202213764190674 10.42183303833008 8.68659496307373 10.64399337768555 C 12.78193473815918 10.90510368347168 17.11942481994629 11.07382392883301 19.73685455322266 11.07382392883301 M 19.73685455322266 13.07382392883301 C 13.6684741973877 13.07382392883301 0.1934845149517059 12.2277135848999 -0.001295483438298106 11.67107391357422 C -0.1960754841566086 11.11442375183105 -0.001295483438298106 7.61155366897583 -0.001295483438298106 5.956713676452637 C -0.001295483438298106 2.229583501815796 8.846494674682617 -0.7918564081192017 19.76080513000488 -0.7918564081192017 C 30.67511367797852 -0.7918564081192017 39.52291488647461 2.229583501815796 39.52291488647461 5.956713676452637 C 39.52291488647461 7.600393772125244 40.12408447265625 10.25004386901855 37.52747344970703 11.31053352355957 C 33.63911437988281 12.90437316894531 25.83791542053223 13.07382392883301 19.73685455322266 13.07382392883301 Z"/></g><path class="c" d="M17.371,9.1c5.373,0,12.325-.252,15.749-1.388a3.35,3.35,0,0,0,1.229-.564c.472-.428.286-2.111.286-2.99,0-2.658-8.227-5-17.839-5S-.012,1.914-.012,4.572a23.732,23.732,0,0,0,0,3.541C.16,8.51,12.027,9.1,17.371,9.1Z" transform="translate(196.383 401.551)"/><g class="d" transform="translate(202 372)"><circle class="g" cx="2" cy="2" r="2"/><circle class="i" cx="2" cy="2" r="1.5"/></g><g class="d" transform="translate(218 372)"><circle class="g" cx="2" cy="2" r="2"/><circle class="i" cx="2" cy="2" r="1.5"/></g><path class="e" d="M1411.1,335.92c4.535,5.231,10.039,3.1,11.819-2.729" transform="matrix(0.974, 0.225, -0.225, 0.974, -1093.499, -262.872)"/><path class="e" d="M1411.1,334.493c3.19-1.571,2.77-.509,5.639-1.3" transform="translate(1476.74 1138.484) rotate(-163)"/><g class="a" transform="translate(203 350.004)"><path class="g" d="M 15.04373741149902 15.97579956054688 L 8.48415470123291 15.97579956054688 L 7.975401401519775 15.91075992584229 C 3.999281167984009 15.40246963500977 1.000901222229004 11.99117946624756 1.000901222229004 7.975800037384033 L 1.000901222229004 1.000899910926819 L 12.55680084228516 1.000899910926819 C 12.8010311126709 1.000899910926819 13.04797172546387 1.013499855995178 13.29074096679688 1.038339853286743 L 13.37318134307861 1.046779870986938 L 13.45589160919189 1.041529893875122 C 14.08105087280273 1.001849889755249 14.74691104888916 0.9964998960494995 15.3158016204834 0.9964998960494995 C 15.55602169036865 0.9964998960494995 15.79925155639648 0.9975798726081848 16.04504203796387 0.9986599087715149 C 16.29904174804688 0.9997698664665222 16.55575180053711 1.000899910926819 16.81470108032227 1.000899910926819 L 31.59285163879395 1.000899910926819 C 31.51152038574219 2.475422382354736 31.0809154510498 4.07661247253418 30.33526039123535 5.66526985168457 C 29.49326133728027 7.459189891815186 28.26629066467285 9.201689720153809 26.7869815826416 10.70438957214355 C 25.23592185974121 12.27997970581055 23.40694046020508 13.58582019805908 21.49778175354004 14.48073959350586 C 19.40953063964844 15.4596118927002 17.23817253112793 15.96261787414551 15.04373741149902 15.97579956054688 Z"/><path class="h" d="M 15.03961277008057 14.97579956054688 C 17.08769798278809 14.96322059631348 19.11763381958008 14.49203205108643 21.07334136962891 13.57528972625732 C 22.87627220153809 12.73015975952148 24.6055908203125 11.49483013153076 26.07435035705566 10.00284957885742 C 28.41900634765625 7.621118545532227 30.01887702941895 4.674191474914551 30.47417449951172 2.000899791717529 L 16.81470108032227 2.000899791717529 C 16.55427169799805 2.000899791717529 16.29609107971191 1.999769926071167 16.04064178466797 1.998649835586548 C 15.79633140563965 1.997569918632507 15.5545711517334 1.9964998960495 15.3158016204834 1.9964998960495 C 14.76261138916016 1.9964998960495 14.11656093597412 2.001609802246094 13.51923084259033 2.039519786834717 L 13.35382080078125 2.050019979476929 L 13.18893146514893 2.03314995765686 C 12.97985172271729 2.011749982833862 12.76717090606689 2.000899791717529 12.55680084228516 2.000899791717529 L 2.000901222229004 2.000899791717529 L 2.000901222229004 7.975800037384033 C 2.000901222229004 11.48933029174805 4.623891353607178 14.47418022155762 8.102210998535156 14.91882991790771 L 8.547860145568848 14.97579956054688 L 15.03961277008057 14.97579956054688 M 15.04620170593262 16.97579956054688 L 7.848901271820068 16.97579956054688 L 7.848601341247559 16.90268898010254 C 3.422201156616211 16.33683967590332 0.000901263440027833 12.55521011352539 0.000901263440027833 7.975800037384033 L 0.000901263440027833 0.000899886479601264 L 12.55680084228516 0.000899886479601264 C 12.83865165710449 0.000899886479601264 13.11759090423584 0.01539988629519939 13.39255142211914 0.04353988543152809 C 14.00433826446533 0.004708566702902317 14.6485481262207 -0.003498277626931667 15.31579971313477 -0.003498277626931667 C 15.80429935455322 -0.003498277626931667 16.30513572692871 0.000899886479601264 16.81470108032227 0.000899886479601264 L 32.60700225830078 0.000899886479601264 L 32.60700225830078 0.494099885225296 C 32.60700225830078 7.673399925231934 24.84090042114258 16.91909980773926 15.04620170593262 16.97579956054688 Z"/></g><path class="f" d="M-.067,4.874c0-.524.016-1.053.041-1.584L-.022,0H10.41c1.161-.106,2.519,0,3.971,0H27.24l-.009.258A16.7,16.7,0,0,1,13.1,12.964H12.28L12.238,13l-3.4.008q-.262.006-.513.006C1.061,13.013-.067,9.153-.067,4.874Z" transform="translate(206.166 352.038)"/><g class="a" transform="translate(192.355 350)"><path class="g" d="M 3.598199844360352 16.0487003326416 L 0.9999999403953552 16.0487003326416 L 0.9999999403953552 9 C 0.9999999403953552 4.588789939880371 4.588789939880371 1.00000011920929 9 1.00000011920929 L 11.59819984436035 1.00000011920929 L 11.59819984436035 8.048700332641602 C 11.59819984436035 12.45991039276123 8.00940990447998 16.0487003326416 3.598199844360352 16.0487003326416 Z"/><path class="h" d="M 3.598199844360352 15.0487003326416 C 7.458009719848633 15.0487003326416 10.59819984436035 11.90851020812988 10.59819984436035 8.048700332641602 L 10.59819984436035 2.000000238418579 L 9 2.000000238418579 C 5.140190124511719 2.000000238418579 1.99999988079071 5.140190124511719 1.99999988079071 9 L 1.99999988079071 15.0487003326416 L 3.598199844360352 15.0487003326416 M 3.598199844360352 17.0487003326416 L -7.781982702681489e-08 17.0487003326416 L -7.781982702681489e-08 9 C -7.781982702681489e-08 4.029300212860107 4.029299736022949 1.663208024638152e-07 9 1.663208024638152e-07 L 12.59819984436035 1.663208024638152e-07 L 12.59819984436035 8.048700332641602 C 12.59819984436035 13.01940059661865 8.568900108337402 17.0487003326416 3.598199844360352 17.0487003326416 Z"/></g><path class="f" d="M0,12.964V6A6,6,0,0,1,6,0H7.725V5.963a7,7,0,0,1-7,7Z" transform="translate(195.276 352.037)"/></g></svg>