<svg xmlns="http://www.w3.org/2000/svg" viewBox="0 0 74 74"><defs><style>.a{fill:#e9e8ee;}.b{fill:#f2705d;}.c,.e{fill:none;stroke-linecap:round;stroke-width:2px;}.c{stroke:#70d5e0;}.d{fill:#70d5e0;}.e{stroke:#27116c;}.f{fill:#fff;}</style></defs><g transform="translate(-263 -103)"><circle class="a" cx="37" cy="37" r="37" transform="translate(263 103)"/><path class="b" d="M4.642,0a4.991,4.991,0,0,1,4.52,3.126,6.247,6.247,0,0,1,.348,2.138A4.443,4.443,0,0,1,8.1,8.69,4.837,4.837,0,0,1,6.612,9.8a3.791,3.791,0,0,1-1.807.483A4.977,4.977,0,0,1,1.728,9.156,5.225,5.225,0,0,1,0,5.264C0,2.7,1.989.009,4.642,0Z" transform="translate(305.697 119.169) rotate(21)"/><g transform="translate(-4 7)"><path class="c" d="M3.088,20.863C-3.865,8,1.51-.063,1.51-.063" transform="translate(288.898 125.068) rotate(7)"/><path class="c" d="M3.088,20.863C-3.865,8,1.51-.063,1.51-.063" transform="matrix(0.966, 0.259, -0.259, 0.966, 287.357, 125.166)"/><path class="d" d="M-.067,2.464c0-.267.008-.537.021-.809l0-1.679H5.281c.593-.054,1.286,0,2.027,0h6.564l0,.132A8.525,8.525,0,0,1,6.656,6.594H6.235l-.021.018-1.737,0q-.133,0-.262,0C.509,6.619-.067,4.649-.067,2.464Z" transform="matrix(-0.985, 0.174, -0.174, -0.985, 291.43, 125.072)"/><path class="d" d="M-.067,2.464c0-.267.008-.537.021-.809l0-1.679H5.281c.593-.054,1.286,0,2.027,0h6.564l0,.132A8.525,8.525,0,0,1,6.656,6.594H6.235l-.021.018-1.737,0q-.133,0-.262,0C.509,6.619-.067,4.649-.067,2.464Z" transform="translate(287.361 119.387) rotate(-21)"/><path class="d" d="M-.067,2.464c0-.267.008-.537.021-.809l0-1.679H5.281c.593-.054,1.286,0,2.027,0h6.564l0,.132A8.525,8.525,0,0,1,6.656,6.594H6.235l-.021.018-1.737,0q-.133,0-.262,0C.509,6.619-.067,4.649-.067,2.464Z" transform="translate(288.203 122.416) rotate(-102)"/><path class="d" d="M-.067,2.4c0-.261.01-.524.026-.788l0-1.637H6.455c.723-.053,1.568,0,2.472,0h8L16.925.1c-.891,2.815-3.6,5.668-8.794,6.324H7.619l-.026.017-2.119,0q-.163,0-.32,0C.635,6.453-.067,4.532-.067,2.4Z" transform="translate(289.302 124.736) rotate(-157)"/><path class="d" d="M-.067,2.4c0-.261.01-.524.026-.788l0-1.637H6.455c.723-.053,1.568,0,2.472,0h8L16.925.1c-.891,2.815-3.6,5.668-8.794,6.324H7.619l-.026.017-2.119,0q-.163,0-.32,0C.635,6.453-.067,4.532-.067,2.4Z" transform="translate(289.513 119.311) rotate(12)"/></g><path class="d" d="M-3.189,1.375S8.159,1.4,8.154,1.392s3.231,3.43,2.714,6.024A8.39,8.39,0,0,1,9.4,11.091l-11.967-.837s.681-.15,1.375-2.752S-3.189,1.375-3.189,1.375Z" transform="matrix(-0.998, 0.07, -0.07, -0.998, 313.063, 153.566)"/><path class="e" d="M902.539,190.586a7.967,7.967,0,0,1-4.1,6.405,8.358,8.358,0,0,1-3.41,1" transform="translate(945.712 -522.049) rotate(121)"/><path class="e" d="M895.5,199.843c1.077-1.294,2.855-3.569,4.568-5.785,1.37-1.772,2.664-3.471,2.664-3.471" transform="matrix(0.616, 0.788, -0.788, 0.616, -91.477, -686.095)"/><path class="e" d="M902.539,190.586a7.967,7.967,0,0,1-4.1,6.405,8.358,8.358,0,0,1-3.41,1" transform="translate(920.917 -532.932) rotate(120)"/><g transform="translate(-27 15)"><rect class="b" width="60" height="14" rx="7" transform="translate(299 137)"/><path class="f" d="M0,0H60V10.712H0Z" transform="translate(299 143)"/></g></g></svg>