<svg xmlns="http://www.w3.org/2000/svg" viewBox="0 0 45.485 60.647">
  <defs>
    <style>
      .cls-1 {
        fill: #9c86d1;
      }

      .cls-2 {
        fill: #fff;
        stroke: #39277b;
      }

      .cls-2, .cls-3 {
        stroke-width: 3px;
      }

      .cls-3, .cls-7 {
        fill: none;
      }

      .cls-3 {
        stroke: #707070;
      }

      .cls-4 {
        fill: #f2e227;
      }

      .cls-5, .cls-6 {
        stroke: none;
      }

      .cls-6 {
        fill: #39277b;
      }
    </style>
  </defs>
  <g id="Group_8" data-name="Group 8" transform="translate(2878.405 3234.871)">
    <g id="Path_11" data-name="Path 11" class="cls-1" transform="translate(-2865 -3224)">
      <path class="cls-5" d="M 30.26586532592773 47.67947006225586 L 17.02545738220215 39.08794403076172 L 16.23440742492676 38.57465362548828 L 15.42894744873047 39.06501388549805 L 1.290582537651062 47.67232513427734 C 1.284986972808838 47.62525177001953 1.279420852661133 47.5760612487793 1.273917198181152 47.52476501464844 C 1.19448721408844 46.78439331054688 1.142317175865173 45.74330139160156 1.114417195320129 44.34200286865234 C 1.05830717086792 41.52409362792969 1.100057244300842 37.24094390869141 1.157837152481079 31.31285285949707 C 1.223167181015015 24.61008262634277 1.312637209892273 15.43032360076904 1.312637209892273 3.273453235626221 C 1.312637209892273 2.295573234558105 2.108207225799561 1.500003337860107 3.086087226867676 1.500003337860107 L 28.7281665802002 1.500003337860107 C 29.70605659484863 1.500003337860107 30.50162696838379 2.295573234558105 30.50162696838379 3.273453235626221 C 30.50162696838379 12.41229343414307 30.52952766418457 19.80570411682129 30.55193710327148 25.74641418457031 C 30.58352661132812 34.11923217773438 30.60439682006836 39.65064239501953 30.52239799499512 43.26046371459961 C 30.48126792907715 45.07157516479492 30.41626739501953 46.34081268310547 30.31784629821777 47.25481414794922 C 30.30080413818359 47.41308975219727 30.28332901000977 47.55404663085938 30.26586532592773 47.67947006225586 Z"/>
      <path class="cls-6" d="M 3.086086273193359 3.000003814697266 C 2.935297012329102 3.000003814697266 2.812627792358398 3.122673034667969 2.812627792358398 3.273452758789062 C 2.812627792358398 15.43755340576172 2.723117828369141 24.62149238586426 2.657756805419922 31.32732391357422 C 2.603286743164062 36.91559219360352 2.563938140869141 40.95320129394531 2.604288101196289 43.7372932434082 C 2.611669540405273 44.24676513671875 2.621856689453125 44.6981201171875 2.634071350097656 45.09830856323242 L 14.6489372253418 37.78376388549805 L 16.25986862182617 36.80304336547852 L 17.84195709228516 37.82964324951172 L 28.96434020996094 45.04681015014648 C 28.9936351776123 44.3648567199707 29.01885414123535 43.53466796875 29.03701782226562 42.52347183227539 C 29.10164642333984 38.92545318603516 29.08187675476074 33.68479156494141 29.05194664001465 25.7520637512207 C 29.02952766418457 19.81009292602539 29.00162696838379 12.41511154174805 29.00162696838379 3.273452758789062 C 29.00162696838379 3.122673034667969 28.87895774841309 3.000003814697266 28.7281665802002 3.000003814697266 L 3.086086273193359 3.000003814697266 M 3.086086273193359 3.814697265625e-06 L 28.7281665802002 3.814697265625e-06 C 30.53604698181152 3.814697265625e-06 32.00162887573242 1.465572357177734 32.00162887573242 3.273452758789062 C 32.00162887573242 43.81723403930664 32.54999542236328 49.7766227722168 30.74210739135742 49.7766227722168 L 16.20895767211914 40.34625244140625 L 0.7186374664306641 49.7766227722168 C -1.089241027832031 49.7766227722168 -0.1873722076416016 42.00935363769531 -0.1873722076416016 3.273452758789062 C -0.1873722076416016 1.465572357177734 1.278207778930664 3.814697265625e-06 3.086086273193359 3.814697265625e-06 Z"/>
    </g>
    <g id="Group_5" data-name="Group 5" transform="translate(-2878.405 -3214.833)">
      <g id="Rectangle_14" data-name="Rectangle 14" class="cls-2" transform="translate(0 4.767) rotate(-7)">
        <rect class="cls-5" width="29.113" height="23.318" rx="6"/>
        <rect class="cls-7" x="1.5" y="1.5" width="26.113" height="20.318" rx="4.5"/>
      </g>
      <line id="Line_11" data-name="Line 11" class="cls-3" y1="3" x2="18.43" transform="translate(6.077 10.561)"/>
      <line id="Line_12" data-name="Line 12" class="cls-3" y1="3" x2="18.43" transform="translate(7.077 16.561)"/>
      <path id="Path_12" data-name="Path 12" class="cls-3" d="M27,0" transform="translate(8.831 21.051)"/>
    </g>
    <g id="stjerne" data-name="Group 7" transform="translate(-2861.911 -3231.465) rotate(-16)">
      <g id="Path_13" data-name="Path 13" class="cls-4" transform="translate(-0.237 3.476) rotate(-7)">
        <path class="cls-5" d="M 4.521295070648193 14.62493515014648 L 4.355173587799072 10.88607406616211 L 4.333483695983887 10.39788436889648 L 3.935003757476807 10.11502456665039 L 1.841569423675537 8.629016876220703 L 4.050493717193604 7.348384380340576 L 4.537423610687256 7.066084384918213 L 4.548733711242676 6.503344535827637 C 4.573305606842041 5.27998161315918 4.62660551071167 3.631463766098022 4.671845436096191 2.337579488754272 L 8.060463905334473 5.227484226226807 L 8.707703590393066 5.779464244842529 L 9.356343269348145 5.229114532470703 L 13.01959896087646 2.120915412902832 C 13.02499961853027 3.575566291809082 12.99216079711914 5.451281070709229 12.81949329376221 6.601874351501465 L 12.69216346740723 7.450384140014648 L 13.51146411895752 7.705174446105957 L 15.49240970611572 8.321223258972168 L 13.11018371582031 10.5921745300293 L 12.81218338012695 10.87625408172607 L 12.8005838394165 11.28779411315918 L 12.70820140838623 14.56416130065918 L 9.251314163208008 11.7586145401001 L 8.615533828735352 11.24262428283691 L 7.984263896942139 11.76412391662598 L 4.521295070648193 14.62493515014648 Z"/>
        <path class="cls-6" d="M 11.99091529846191 4.305184364318848 L 10.0033130645752 5.991623878479004 L 8.706053733825684 7.092324256896973 L 7.41157341003418 5.988354682922363 L 5.603017807006836 4.445969581604004 C 5.580679893493652 5.180050849914551 5.560927391052246 5.906290054321289 5.54853343963623 6.52342414855957 L 5.525923728942871 7.648904800415039 L 4.552053451538086 8.21351432800293 L 3.688845634460449 8.713962554931641 L 4.513833999633789 9.29957389831543 L 5.310813903808594 9.865304946899414 L 5.354193687438965 10.84169387817383 L 5.431255340576172 12.57610130310059 L 7.347363471984863 10.99317455291748 L 8.60991382598877 9.950164794921875 L 9.88148307800293 10.98214435577393 L 11.76568031311035 12.51132392883301 L 11.80097389221191 11.25961494445801 L 11.82418346405029 10.43652439117432 L 12.4201831817627 9.868364334106445 L 13.5712947845459 8.771021842956543 L 13.21450424194336 8.660064697265625 L 11.57590389251709 8.150484085083008 L 11.83057403564453 6.453474044799805 C 11.91407775878906 5.897024154663086 11.96356773376465 5.12744140625 11.99091529846191 4.305184364318848 M 13.98464393615723 -0.009365081787109375 C 13.98464393615723 -0.009365081787109375 14.13813400268555 4.553214073181152 13.80842399597168 6.750284194946289 L 17.41352462768555 7.871424674987793 L 13.80018424987793 11.31598472595215 L 13.65071392059326 16.61697387695312 L 8.621153831481934 12.53507423400879 L 3.611343383789062 16.67375373840332 L 3.35616397857666 10.93046379089355 L -0.005697250366210938 8.544074058532715 L 3.548933982849121 6.483263969421387 C 3.596384048461914 4.120513916015625 3.748333930969238 0.2357044219970703 3.748333930969238 0.2357044219970703 L 8.70936393737793 4.466604232788086 L 13.98464393615723 -0.009365081787109375 Z"/>
      </g>
      <path id="Path_12-2" data-name="Path 12" class="cls-3" d="M27,0" transform="translate(-4.056 15.416)"/>
    </g>
  </g>
</svg>
